PathFileType	4	(X/Y/Z)	Kaydara																																																																																																																									
DataRate	CameraRate	NumFrames	NumMarkers	Units	OrigDataRate	OrigDataStartFrame	OrigNumFrames																																																																																																																					
30	30	4	41	mm	30	92	180																																																																																																																					
Frame#	Time	SALE_LFHD			SALE_RFHD			SALE_LBHD			SALE_RBHD			SALE_LFTShould			SALE_RFTShould			SALE_LRRShould			SALE_RRRShould			SALE_T10			SALE_STRN			SALE_TRUN			SALE_LSHO			SALE_LUPA			SALE_LELB			SALE_LFRM			SALE_LWRA			SALE_LWRB			SALE_LFIN			SALE_RSHO			SALE_RUPA			SALE_RELB			SALE_RFRM			SALE_RWRB			SALE_RFIN			SALE_LFWT			SALE_RFWT			SALE_LBWT			SALE_RBWT			SALE_LTHI			SALE_LKNE			SALE_RWRA			SALE_LSHN			SALE_LANK			SALE_LHEE			SALE_LTOE			SALE_RTHI			SALE_RKNE			SALE_RSHN			SALE_RANK			SALE_RHEE			SALE_RTOE		
		X1	Y1	Z1	X2	Y2	Z2	X3	Y3	Z3	X4	Y4	Z4	X5	Y5	Z5	X6	Y6	Z6	X7	Y7	Z7	X8	Y8	Z8	X9	Y9	Z9	X10	Y10	Z10	X11	Y11	Z11	X12	Y12	Z12	X13	Y13	Z13	X14	Y14	Z14	X15	Y15	Z15	X16	Y16	Z16	X17	Y17	Z17	X18	Y18	Z18	X19	Y19	Z19	X20	Y20	Z20	X21	Y21	Z21	X22	Y22	Z22	X23	Y23	Z23	X24	Y24	Z24	X25	Y25	Z25	X26	Y26	Z26	X27	Y27	Z27	X28	Y28	Z28	X29	Y29	Z29	X30	Y30	Z30	X31	Y31	Z31	X32	Y32	Z32	X33	Y33	Z33	X34	Y34	Z34	X35	Y35	Z35	X36	Y36	Z36	X37	Y37	Z37	X38	Y38	Z38	X39	Y39	Z39	X40	Y40	Z40	X41	Y41	Z41
																																																																																																																												
91	3.05	230.15898	1582.67258	-1582.2998	97.83189	1590.64194	-1566.59195	208.01613	1545.95581	-1709.84436	82.85211	1553.16193	-1688.05603	222.06718	1311.40427	-1607.73834	80.88395	1306.54327	-1583.63144	194.03347	1393.07129	-1707.28485	46.80331	1392.52151	-1670.31021	98.7137	1257.52243	-1787.60834	150.84909	1227.4221	-1565.21027	150.32423	1133.63052	-1546.24771	319.14272	1352.75787	-1694.65866	339.17107	1186.25954	-1821.3327	321.58749	1097.19398	-1882.88452	366.19328	1011.55205	-1937.57187	363.9333	845.05981	-1944.49066	388.13725	881.83456	-2006.18561	416.88435	825.40543	-1999.41299	-35.56067	1348.02979	-1615.95917	-94.57823	1133.58688	-1708.237	-116.16228	1026.91162	-1674.78516	-112.84174	914.4783	-1696.50101	-118.45851	774.80728	-1657.84088	-111.90104	732.33292	-1604.44199	258.42342	920.93277	-1670.55328	-19.51953	901.40923	-1683.02887	207.62918	987.95372	-1837.51938	27.11275	991.53915	-1836.69861	266.03113	620.23724	-1689.823	242.76951	518.80604	-1523.9798	-58.71984	783.61641	-1614.30466	238.7084	311.20859	-1483.67432	241.80664	122.62382	-1502.0134	208.43134	62.91193	-1559.35394	203.91315	97.59832	-1369.54086	-5.52222	708.86574	-1907.3465	11.1776	529.13616	-1876.40594	71.27702	357.98428	-1972.61459	36.38655	151.56273	-2133.24707	42.83909	76.63681	-2038.9476	85.927	117.81382	-2221.80573
92	3.083	238.0971	1587.56744	-1546.16714	105.92788	1595.84946	-1530.23682	215.51867	1548.68118	-1672.94067	90.48656	1556.50803	-1651.02234	228.45631	1314.48746	-1568.04214	87.31371	1312.14752	-1542.39731	200.45549	1395.18982	-1668.13004	53.56264	1397.12814	-1630.1825	103.17089	1259.89067	-1746.29135	156.6278	1232.03972	-1523.78403	155.33304	1138.66714	-1503.55225	325.00248	1353.61801	-1656.24756	345.67009	1186.0778	-1781.92276	328.53188	1096.51855	-1842.73331	372.78473	1011.93329	-1898.21243	370.66097	845.13725	-1907.50748	394.11728	883.37509	-1968.50098	423.13911	827.53891	-1963.69675	-29.48839	1353.8356	-1575.72464	-88.14827	1139.95277	-1669.87106	-111.77268	1033.60985	-1636.77185	-109.00546	920.82054	-1657.69394	-115.4355	781.37154	-1618.40439	-110.04012	739.74426	-1564.27902	261.25126	926.04988	-1627.44659	-14.89714	900.28763	-1638.1749	209.36632	994.32014	-1793.7706	28.58238	992.28325	-1792.73911	268.71248	625.11238	-1651.72607	241.57871	521.40434	-1487.97714	-56.08559	790.1017	-1574.12613	238.6875	310.25677	-1459.5372	241.1537	122.81865	-1490.75821	209.39653	67.12912	-1553.94928	202.89221	88.76078	-1360.25589	-0.26928	710.33409	-1864.49997	16.80736	530.23338	-1834.68536	75.75088	360.69851	-1940.4892	36.6575	168.32272	-2118.48709	42.74244	76.93389	-2034.36218	84.90053	145.40506	-2208.8533
93	3.117	245.99697	1595.71274	-1508.76526	113.37726	1605.85907	-1493.02292	223.27068	1554.08859	-1634.61761	98.36205	1563.35495	-1612.94174	235.01398	1321.48666	-1526.14929	94.16826	1320.94208	-1498.64151	206.86636	1401.26999	-1626.37268	60.94215	1406.00601	-1587.10648	107.86242	1266.78406	-1702.20032	163.4453	1240.82352	-1480.01404	161.82854	1147.63672	-1458.61969	330.9832	1359.17862	-1615.89691	352.61803	1188.1469	-1737.74109	335.93079	1097.48863	-1796.90186	380.23659	1011.60301	-1849.92767	376.5345	844.3853	-1857.14722	401.45233	882.32323	-1917.96432	429.35917	826.18462	-1913.09494	-22.12076	1364.13544	-1532.50137	-81.34315	1153.86726	-1630.27161	-106.91241	1046.44165	-1599.20227	-104.29256	933.05656	-1620.25421	-110.71301	792.95547	-1582.23907	-107.55268	752.38358	-1526.77414	264.04234	934.41238	-1582.56577	-11.80201	906.07422	-1593.38593	210.99918	1002.74452	-1748.52341	31.07186	998.10387	-1747.20612	272.59514	631.67835	-1614.87747	241.4646	520.47726	-1456.50635	-52.95317	801.97235	-1535.72662	238.57996	307.53284	-1441.73706	242.52226	122.52845	-1485.72098	210.60869	68.44339	-1552.5209	204.82325	85.75835	-1358.34122	6.78309	709.39888	-1815.27756	24.93355	527.75379	-1778.15369	79.85825	359.52682	-1897.03751	37.0075	190.22522	-2093.94165	43.3998	78.07463	-2028.43445	85.69575	180.73761	-2184.99191
94	3.15	252.65354	1605.02838	-1470.36346	120.67282	1615.02808	-1455.05981	230.27193	1561.1499	-1595.46936	105.28691	1570.73395	-1574.13239	241.41088	1330.41656	-1483.67096	101.56493	1331.68701	-1456.5126	214.01356	1408.73688	-1584.1539	68.8159	1415.53009	-1545.62241	114.56922	1274.5961	-1659.039	169.53777	1251.00388	-1436.20575	167.44942	1158.19054	-1413.11371	337.71652	1366.88019	-1573.2785	359.90162	1191.56693	-1689.97299	342.87209	1099.01817	-1746.30951	387.28291	1009.96689	-1794.36981	381.30978	842.54883	-1794.36142	408.41087	877.8511	-1856.19705	435.1593	821.36795	-1848.58658	-14.58112	1375.48996	-1490.78018	-76.29446	1168.18993	-1588.77228	-102.02716	1060.14969	-1560.77393	-100.41063	947.24457	-1584.33899	-105.95022	804.98978	-1550.24261	-105.48935	765.11009	-1493.81271	266.65516	942.65495	-1538.20709	-8.75863	913.20122	-1548.68149	212.43668	1011.68144	-1703.25394	33.92055	1004.64485	-1702.65793	275.40375	637.45899	-1583.94318	242.6428	517.62775	-1432.54562	-50.84897	814.30435	-1500.86777	239.02254	304.45929	-1427.54715	243.22163	121.78301	-1481.01852	211.69632	70.04008	-1550.41885	205.30869	82.84079	-1355.60684	12.83819	701.93222	-1759.10202	30.84398	519.51668	-1706.008	82.70413	353.71204	-1837.98935	40.623	214.98524	-2057.8923	44.51925	85.77313	-2019.67865	90.34394	225.00921	-2145.96313
